<svg xmlns="http://www.w3.org/2000/svg" width="800" height="615" viewBox="0 0 800 615">
  <defs>
    <style>
      .cls-1 {
        fill: #395cf3;
        fill-rule: evenodd;
      }

      .cls-2 {
        fill: #ff8cfa;
      }
    </style>
  </defs>
  <path id="mask" class="cls-1" d="M667.387,241.43A170.046,170.046,0,0,0,511,137.006V137H272V2.582c0.1-.012.2-0.026,0.308-0.037V0.653h238.27v0c133.731,0.1,247.392,85.9,289.084,205.434ZM0,205H136V307h0.5A170,170,0,0,0,306,476.993V477H511v-0.007A170.041,170.041,0,0,0,667.008,373.467l132.331,35.356c-41.951,119.061-155.372,204.421-288.762,204.52v1H306.346v-1h0C137.155,613.346,0,476.19,0,307c0-.008,0-0.016,0-0.024V205Z"/>
  <path id="eye" class="cls-1" d="M276.12,329.465a68.077,68.077,0,1,1,128.529,0H276.12Zm268.5-90.542A68.077,68.077,0,1,1,476.538,307,68.076,68.076,0,0,1,544.615,238.923Z"/>
  <circle id="signal" class="cls-2" cx="68.078" cy="68.734" r="68.078"/>
</svg>
