<svg xmlns="http://www.w3.org/2000/svg" width="2400" height="615" viewBox="0 0 2400 615">
  <defs>
    <style>
      .cls-1 {
      fill: #395cf3;
      }

      .cls-1, .cls-2 {
      fill-rule: evenodd;
      }

      .cls-2 {
      fill: #fff;
      }

      .cls-3 {
      fill: #ff8cfa;
      }
    </style>
  </defs>
  <path id="mask" class="cls-1"
    d="M667.387,241.43A170.046,170.046,0,0,0,511,137.006V137H272V2.582l0.309-.037V0.653H510.576v0c133.732,0.1,247.393,85.9,289.084,205.434ZM0,205H136V307h0.5A170,170,0,0,0,306,476.993V477H511v-0.007A170.043,170.043,0,0,0,667.009,373.467l132.329,35.356c-41.951,119.061-155.371,204.421-288.762,204.52v1H306.346v-1h0C137.156,613.346,0,476.19,0,307c0-.008,0-0.016,0-0.024V205Z" />
  <path id="eye" class="cls-2"
    d="M276.12,329.465a68.077,68.077,0,1,1,128.528,0H276.12Zm268.5-90.542A68.077,68.077,0,1,1,476.538,307,68.076,68.076,0,0,1,544.615,238.923Z" />
  <circle id="signal" class="cls-3" cx="68.078" cy="68.734" r="68.078" />
  <path id="typography" class="cls-2"
    d="M2248.31,471.634H2147.73l41.66-78.791-114.26-201.97h98.54l64.91,117.993,60.9-117.993H2400Zm-282.12-72.128-51.43-58.37-51.44,58.37h-106.2L1849.23,293.9,1757.12,188.29h106.2l51.44,58.362,51.43-58.362h105.1L1980.28,293.9l91.01,105.608h-105.1Zm-303.61-32.3c-18.28,18.366-44.49,32.071-92.79,32.071-62.28,0-99.91-10.523-118.61-50.311-13.47-28.663-16.15-65-16.09-144.085l0.01-16.6h84.09v69.6c0,31.278-.71,71.208,61.97,71.208,41.14,0,66.42-19.493,81.43-32.915V188.29h83.69V399.506h-83.7v-32.3Zm-333.49,9.562V144.51h84.7v255h-84.7V376.772ZM1131.74,214.43c-71.6,0-83.61,28.254-83.61,56.635,0,31.885,17.86,57.542,83.61,57.542,76.88,0,87.5-26.843,88.97-33.888l86.74,10.662c-4.93,52.963-44.14,95.218-172.81,95.218-132.14,0-174.206-40.439-174.206-126.6,0-97.934,60.416-132.449,172-132.449,123.52,0,169.69,40.578,175.05,102.3l-87.04,10.7C1217.92,246.049,1203.72,214.43,1131.74,214.43Z" />
</svg>